<svg id="icons" enable-background="new 0 0 64 64" height="512" viewBox="0 0 64 64" width="512" xmlns="http://www.w3.org/2000/svg"><g><g><path d="m36.21 10.04-1.61 4.94h-5.2l-1.61-4.94 4.21-3.06z" fill="#656d78"/></g><g><path d="m32 23c-1.5 0-2.92-.3-4.22-.84v-.01l4.22-2.21 4.22 2.21v.01c-1.3.54-2.72.84-4.22.84z" fill="#656d78"/></g><g><path d="m29.35 1.33c.85-.22 1.74-.33 2.65-.33s1.8.11 2.65.33c4.52 1.11 7.949 5.04 8.31 9.811l-3.37 3.27.811 4.69c-1.12 1.319-2.551 2.38-4.181 3.06v-.01l-4.22-2.211-4.22 2.21v.01c-1.63-.68-3.061-1.74-4.181-3.06l.811-4.69-3.37-3.27c.36-4.77 3.79-8.7 8.31-9.81zm5.25 13.65 1.61-4.94-4.21-3.06-4.21 3.06 1.61 4.94z" fill="#e6e9ed"/></g><g><path d="m57 43.99v.01c-.01 1.11-1.35 2-3 2s-2.99-.89-3-2v-.01-3.68c.91.439 1.92.68 3 .68s2.09-.24 3-.68z" fill="#eac6bb"/></g><g><path d="m61 29v2l-2-1.979-.03-.011c-.27.11-2.489 1-5.029 1-2.591 0-4.73-.93-4.931-1.01l-.01.01-2 2.011v-2.021c0-3.87 3.13-7 7-7s7 3.13 7 7z" fill="#656d78"/></g><g><g><path d="m54 22c-.516 0-1.018.06-1.502.165 3.146.687 5.499 3.48 5.499 6.835v.353c.521-.162.876-.304.973-.343l.03.011 2 1.979v-2c0-3.87-3.13-7-7-7z" fill="#545c66"/></g></g><g><path d="m55.5 50.99h-3-7.5v-4c0-1.66 1.34-3 3-3v.01h3c.01 1.11 1.35 2 3 2s2.99-.89 3-2h3v-.01c1.66 0 3 1.34 3 3v4z" fill="#5d9cec"/></g><g><path d="m61 33.99v.01c0 2.79-1.64 5.2-4 6.311-.91.439-1.92.68-3 .68s-2.09-.24-3-.68c-2.36-1.111-4-3.521-4-6.311v-.01-2.97l2-2.011.01-.009c.2.08 2.34 1.01 4.931 1.01 2.54 0 4.76-.89 5.029-1l.03.011 2 1.979z" fill="#eac6bb"/></g><g><path d="m59 29.021-.03-.011c-.097.039-.451.181-.973.343v4.638.009c0 2.79-1.64 5.2-4 6.311-.474.229-.976.4-1.499.516.483.105.983.164 1.502.164 1.08 0 2.09-.24 3-.68 2.36-1.11 4-3.521 4-6.311v-.01-2.99z" fill="#d3b1a9"/></g><g><path d="m36 49.061v3.93c0 1.66-1.79 3.01-4 3.01s-4-1.35-4-3.01v-3.93-.011c1.2.601 2.57.94 4 .94s2.8-.34 4-.94z" fill="#eac6bb"/></g><g><path d="m26 35.99-3 2.03v-3.03c0-4.42 3.58-8 8-8h6v4c2.21 0 4 1.79 4 4v3.03l-3-2.03s-2.01 1-5.5 1-6.5-1-6.5-1z" fill="#965353"/></g><g><path d="m41 38.021v-3.03c0-2.21-1.79-4-4-4v-4h-3v4c0 1.657 1.343 3 3 3 .552 0 1 .448 1 1v1z" fill="#844747"/></g><g><path d="m41 38.021v2.979c0 3.53-2.04 6.58-5 8.05-1.2.601-2.57.94-4 .94s-2.8-.34-4-.94c-2.95-1.46-4.98-4.489-5-8.01v-.04-2.979l3-2.03s3.01 1 6.5 1 5.5-1 5.5-1z" fill="#eac6bb"/></g><g><path d="m38 35.99-.003.001v5.009c0 3.53-2.04 6.58-5 8.05-.771.386-1.616.649-2.499.8.491.083.99.141 1.502.141 1.43 0 2.8-.34 4-.94 2.96-1.47 5-4.52 5-8.05v-2.979z" fill="#d3b1a9"/></g><g><path d="m29 63h-8c-.55 0-1-.45-1-1v-4.01c0-2.76 2.24-5 5-5h3c0 1.66 1.79 3.01 4 3.01s4-1.35 4-3.01h3c2.76 0 5 2.24 5 5v4.01c0 .55-.45 1-1 1h-8-3z" fill="#5d9cec"/></g><g><g><path d="m39 52.99h-3c2.759.002 4.997 2.241 4.997 5v4.01c0 .55-.45 1-1 1h3.003c.55 0 1-.45 1-1v-4.01c0-2.76-2.24-5-5-5z" fill="#4a89dc"/></g></g><g><path d="m17 29.49v1.37c-1.72-2.24-2.76-2.65-4-2.391l1.99-4.069c1.25 1.33 2.01 3.13 2.01 5.09z" fill="#f6bb42"/></g><g><path d="m3 30.13c-.32-.04-.65-.08-1-.14v-.5c0-4.14 3.36-7.5 7.5-7.5 2.18 0 4.14.93 5.49 2.41l-1.99 4.07c-1.87.39-4.19 2.33-10 1.66z" fill="#ffce54"/></g><g><path d="m13 43.99v.01c-.01 1.11-1.35 2-3 2s-2.99-.89-3-2v-.01-3.68c.91.439 1.92.68 3 .68s2.09-.24 3-.68z" fill="#eac6bb"/></g><g><path d="m17 30.86v3.13c0 2.79-1.63 5.2-4 6.32-.91.439-1.92.68-3 .68s-2.09-.24-3-.68c-2.37-1.12-4-3.53-4-6.32v-3.86c5.81.67 8.13-1.27 10-1.66 1.24-.26 2.28.15 4 2.39z" fill="#eac6bb"/></g><g><path d="m13.997 28.439v5.551c0 2.79-1.63 5.2-4 6.32-.474.229-.976.4-1.499.516.483.106.983.164 1.502.164 1.08 0 2.09-.24 3-.68 2.37-1.12 4-3.53 4-6.32v-3.13c-1.246-1.624-2.136-2.278-3.003-2.421z" fill="#d3b1a9"/></g><g><path d="m10 46c1.65 0 2.99-.89 3-2h3v-.01c1.66 0 3 1.34 3 3v4h-9-9v-4c0-1.66 1.34-3 3-3v.01h3c.01 1.11 1.35 2 3 2z" fill="#5d9cec"/></g><g><g><path d="m16 43.99v.01h-2.905c1.613.053 2.902 1.363 2.902 2.99v4h3.003v-4c0-1.66-1.34-3-3-3z" fill="#4a89dc"/></g></g><g><g><path d="m60 43.99v.01h-2.905c1.613.053 2.902 1.363 2.902 2.99v4h3.003v-4c0-1.66-1.34-3-3-3z" fill="#4a89dc"/></g></g><g><path d="m42.462 15.399c-.464 1.427-1.188 2.685-2.103 3.754l-.009-.003-.798-4.696 3.405-3.331.009.003c.113 1.403-.04 2.847-.504 4.273z" fill="#656d78"/></g><g><path d="m38.466 3.101c1.215.882 2.188 1.959 2.921 3.16l-.005.008-4.713-.692-2.117-4.269.006-.007c1.37.326 2.695.918 3.908 1.8z" fill="#656d78"/></g><g><path d="m25.535 3.101c1.214-.883 2.538-1.475 3.907-1.802l.007.008-2.116 4.268-4.713.695-.005-.008c.734-1.202 1.706-2.281 2.92-3.161z" fill="#656d78"/></g><g><path d="m21.539 15.398c-.464-1.427-.618-2.869-.506-4.272l.009-.005 3.405 3.332-.795 4.697-.01.002c-.916-1.069-1.641-2.327-2.103-3.754z" fill="#656d78"/></g></g><g><g><path d="m3 34.994c-.553 0-1-.447-1-1v-3.867c0-.553.447-1 1-1s1 .447 1 1v3.867c0 .553-.447 1-1 1z"/></g><g><path d="m17 34.994c-.553 0-1-.447-1-1v-4.5c0-.553.447-1 1-1s1 .447 1 1v4.5c0 .553-.447 1-1 1z"/></g><g><path d="m17 30.494c-.553 0-1-.447-1-1 0-3.584-2.916-6.5-6.501-6.5-3.584 0-6.499 2.916-6.499 6.5 0 .553-.447 1-1 1s-1-.447-1-1c0-4.687 3.813-8.5 8.499-8.5 4.688 0 8.501 3.813 8.501 8.5 0 .553-.447 1-1 1z"/></g><g><path d="m17.001 31.865c-.301 0-.598-.135-.795-.392-1.931-2.522-2.456-2.313-4.414-1.538-1.879.743-4.715 1.87-9.948 1.042-.545-.086-.918-.598-.831-1.144.086-.545.601-.919 1.144-.831 4.693.742 7.123-.223 8.899-.927 2.408-.954 4.024-1.362 6.738 2.181.336.438.253 1.066-.186 1.402-.181.14-.395.207-.607.207z"/></g><g><path d="m12.999 29.471c-.147 0-.298-.033-.439-.103-.496-.243-.7-.843-.457-1.338l2-4.072c.243-.497.842-.701 1.338-.457.496.243.7.843.457 1.338l-2 4.072c-.174.355-.53.56-.899.56z"/></g><g><path d="m1 47.994c-.553 0-1-.447-1-1 0-2.206 1.794-4 4-4 .553 0 1 .447 1 1s-.447 1-1 1c-1.103 0-2 .897-2 2 0 .553-.447 1-1 1z"/></g><g><path d="m7 45h-3c-.553 0-1-.447-1-1s.447-1 1-1h3c.553 0 1 .447 1 1s-.447 1-1 1z"/></g><g><path d="m1 51.998c-.553 0-1-.447-1-1v-4.004c0-.553.447-1 1-1s1 .447 1 1v4.004c0 .553-.447 1-1 1z"/></g><g><path d="m19 47.994c-.553 0-1-.447-1-1 0-1.103-.897-2-2-2-.553 0-1-.447-1-1s.447-1 1-1c2.206 0 4 1.794 4 4 0 .553-.447 1-1 1z"/></g><g><path d="m16 45h-3c-.553 0-1-.447-1-1s.447-1 1-1h3c.553 0 1 .447 1 1s-.447 1-1 1z"/></g><g><path d="m19 51.998c-.553 0-1-.447-1-1v-4.004c0-.553.447-1 1-1s1 .447 1 1v4.004c0 .553-.447 1-1 1z"/></g><g><path d="m19 51.998h-18c-.553 0-1-.447-1-1s.447-1 1-1h18c.553 0 1 .447 1 1s-.447 1-1 1z"/></g><g><path d="m7 45c-.553 0-1-.447-1-1v-3.684c0-.553.447-1 1-1s1 .447 1 1v3.684c0 .553-.447 1-1 1z"/></g><g><path d="m13 44.994c-.553 0-1-.447-1-1v-3.678c0-.553.447-1 1-1s1 .447 1 1v3.678c0 .553-.447 1-1 1z"/></g><g><path d="m10 41.99c-4.411 0-8-3.589-8-8 0-.553.447-1 1-1s1 .447 1 1c0 3.309 2.691 6 6 6s6-2.691 6-6c0-.553.447-1 1-1s1 .447 1 1c0 4.411-3.589 8-8 8z"/></g><g><path d="m45 47.994c-.553 0-1-.447-1-1 0-2.206 1.794-4 4-4 .553 0 1 .447 1 1s-.447 1-1 1c-1.103 0-2 .897-2 2 0 .553-.447 1-1 1z"/></g><g><path d="m51 45h-3c-.553 0-1-.447-1-1s.447-1 1-1h3c.553 0 1 .447 1 1s-.447 1-1 1z"/></g><g><path d="m45 51.998c-.553 0-1-.447-1-1v-4.004c0-.553.447-1 1-1s1 .447 1 1v4.004c0 .553-.447 1-1 1z"/></g><g><path d="m63 47.994c-.553 0-1-.447-1-1 0-1.103-.897-2-2-2-.553 0-1-.447-1-1s.447-1 1-1c2.206 0 4 1.794 4 4 0 .553-.447 1-1 1z"/></g><g><path d="m60 45h-3c-.553 0-1-.447-1-1s.447-1 1-1h3c.553 0 1 .447 1 1s-.447 1-1 1z"/></g><g><path d="m63 51.998c-.553 0-1-.447-1-1v-4.004c0-.553.447-1 1-1s1 .447 1 1v4.004c0 .553-.447 1-1 1z"/></g><g><path d="m63 51.998h-18c-.553 0-1-.447-1-1s.447-1 1-1h18c.553 0 1 .447 1 1s-.447 1-1 1z"/></g><g><path d="m51 45c-.553 0-1-.447-1-1v-3.684c0-.553.447-1 1-1s1 .447 1 1v3.684c0 .553-.447 1-1 1z"/></g><g><path d="m57 44.994c-.553 0-1-.447-1-1v-3.678c0-.553.447-1 1-1s1 .447 1 1v3.678c0 .553-.447 1-1 1z"/></g><g><path d="m20 58.998c-.553 0-1-.447-1-1 0-3.309 2.691-6 6-6 .553 0 1 .447 1 1s-.447 1-1 1c-2.206 0-4 1.794-4 4 0 .553-.447 1-1 1z"/></g><g><path d="m28 53.998h-3c-.553 0-1-.447-1-1s.447-1 1-1h3c.553 0 1 .447 1 1s-.447 1-1 1z"/></g><g><path d="m20 63c-.553 0-1-.447-1-1v-4.002c0-.553.447-1 1-1s1 .447 1 1v4.002c0 .553-.447 1-1 1z"/></g><g><path d="m21 64c-1.103 0-2-.897-2-2 0-.531.418-.914.948-.943.57-.038.992.416 1.052.942.552 0 1 .448 1 1 0 .553-.447 1.001-1 1.001z"/></g><g><path d="m44 58.998c-.553 0-1-.447-1-1 0-2.206-1.794-4-4-4-.553 0-1-.447-1-1s.447-1 1-1c3.309 0 6 2.691 6 6 0 .553-.447 1-1 1z"/></g><g><path d="m39 53.998h-3c-.553 0-1-.447-1-1s.447-1 1-1h3c.553 0 1 .447 1 1s-.447 1-1 1z"/></g><g><path d="m44 63c-.553 0-1-.447-1-1v-4.002c0-.553.447-1 1-1s1 .447 1 1v4.002c0 .553-.447 1-1 1z"/></g><g><path d="m43 64c-.553 0-1-.447-1-1s.447-1 1-1c0-.553.447-1 1-1s1 .447 1 1c0 1.103-.897 2-2 2z"/></g><g><path d="m43 64h-22c-.553 0-1-.447-1-1s.447-1 1-1h22c.553 0 1 .447 1 1s-.447 1-1 1z"/></g><g><path d="m28 53.998c-.553 0-1-.447-1-1v-3.936c0-.553.447-1 1-1s1 .447 1 1v3.936c0 .553-.447 1-1 1z"/></g><g><path d="m36 53.998c-.553 0-1-.447-1-1v-3.936c0-.553.447-1 1-1s1 .447 1 1v3.936c0 .553-.447 1-1 1z"/></g><g><path d="m31.999 50.998c-5.514 0-9.999-4.485-9.999-9.998 0-.553.447-1 1-1s1 .447 1 1c0 4.41 3.588 7.998 7.999 7.998 4.412 0 8.001-3.588 8.001-7.998 0-.553.447-1 1-1s1 .447 1 1c0 5.513-4.486 9.998-10.001 9.998z"/></g><g><path d="m23 42.049c-.553 0-1-.447-1-1v-6.055c0-.553.447-1 1-1s1 .447 1 1v6.055c0 .553-.447 1-1 1z"/></g><g><path d="m41 42c-.553 0-1-.447-1-1v-6.006c0-.553.447-1 1-1s1 .447 1 1v6.006c0 .553-.447 1-1 1z"/></g><g><path d="m41 35.994c-.553 0-1-.447-1-1 0-1.654-1.346-3-3-3-.553 0-1-.447-1-1s.447-1 1-1c2.757 0 5 2.243 5 5 0 .553-.447 1-1 1z"/></g><g><path d="m37 31.994c-.553 0-1-.447-1-1v-4c0-.553.447-1 1-1s1 .447 1 1v4c0 .553-.447 1-1 1z"/></g><g><path d="m37 27.994h-6c-.553 0-1-.447-1-1s.447-1 1-1h6c.553 0 1 .447 1 1s-.447 1-1 1z"/></g><g><path d="m23 35.994c-.553 0-1-.447-1-1 0-4.963 4.037-9 9-9 .553 0 1 .447 1 1s-.447 1-1 1c-3.859 0-7 3.141-7 7 0 .553-.447 1-1 1z"/></g><g><g><path d="m40.999 39.021c-.192 0-.387-.056-.559-.171l-3-2.025c-.458-.31-.578-.931-.27-1.389.31-.457.931-.577 1.389-.27l3 2.025c.458.31.578.931.27 1.389-.193.287-.509.441-.83.441z"/></g><g><path d="m32.5 37.996c-3.612 0-6.687-1.008-6.815-1.051-.523-.175-.807-.74-.634-1.264.174-.523.74-.808 1.264-.635.029.01 2.908.949 6.186.949 3.178 0 5.04-.888 5.059-.897.493-.239 1.094-.037 1.337.457s.043 1.09-.449 1.336c-.093.046-2.262 1.105-5.948 1.105z"/></g><g><path d="m23.001 39.021c-.321 0-.637-.154-.83-.44-.309-.458-.188-1.079.27-1.389l3-2.025c.459-.308 1.08-.188 1.389.27s.188 1.079-.27 1.389l-3 2.025c-.172.115-.367.17-.559.17z"/></g></g><g><path d="m2 30.99c-.553 0-1-.447-1-1v-.496c0-.553.447-1 1-1s1 .447 1 1v.496c0 .553-.447 1-1 1z"/></g><g><g><path d="m47 35.002c-.553 0-1-.447-1-1v-5.002c0-.553.447-1 1-1s1 .447 1 1v5.002c0 .553-.447 1-1 1z"/></g><g><path d="m61 35.002c-.553 0-1-.447-1-1v-5.002c0-.553.447-1 1-1s1 .447 1 1v5.002c0 .553-.447 1-1 1z"/></g><g><path d="m54 41.994c-4.411 0-8-3.588-8-7.998 0-.553.447-1 1-1s1 .447 1 1c0 3.308 2.691 5.998 6 5.998s6-2.69 6-5.998c0-.553.447-1 1-1s1 .447 1 1c0 4.41-3.589 7.998-8 7.998z"/></g><g><g><path d="m61 30c-.553 0-1-.447-1-1 0-3.307-2.691-5.996-6-5.996s-6 2.689-6 5.996c0 .553-.447 1-1 1s-1-.447-1-1c0-4.409 3.589-7.996 8-7.996s8 3.587 8 7.996c0 .553-.447 1-1 1z"/></g><g><path d="m53.937 31.018c-2.9 0-5.256-1.069-5.354-1.115-.501-.23-.72-.823-.49-1.324s.823-.723 1.325-.493c.021.01 2.072.933 4.52.933 2.481 0 4.646-.923 4.667-.932.507-.221 1.096.015 1.314.521s-.015 1.096-.521 1.314c-.105.045-2.571 1.096-5.461 1.096z"/></g><g><g><path d="m61 32.004c-.254 0-.509-.097-.704-.289l-2-1.98c-.392-.389-.396-1.022-.007-1.415.39-.392 1.021-.395 1.415-.007l2 1.98c.392.389.396 1.022.007 1.415-.196.197-.453.296-.711.296z"/></g><g><path d="m47 32.023c-.255 0-.511-.097-.705-.291-.392-.39-.394-1.022-.004-1.414l2-2.01c.39-.391 1.024-.394 1.414-.004.392.39.394 1.022.004 1.414l-2 2.01c-.195.197-.452.295-.709.295z"/></g></g></g></g><g><path d="m10 47c-2.243 0-4-1.318-4-3.002 0-.553.447-1 1-1s1 .447 1 1c0 .408.779 1.002 2 1.002s2-.594 2-1.002c0-.553.447-1 1-1s1 .447 1 1c0 1.684-1.757 3.002-4 3.002z"/></g><g><path d="m54 47c-2.243 0-4-1.318-4-3.002 0-.553.447-1 1-1s1 .447 1 1c0 .408.779 1.002 2 1.002s2-.594 2-1.002c0-.553.447-1 1-1s1 .447 1 1c0 1.684-1.757 3.002-4 3.002z"/></g><g><path d="m32 57c-2.757 0-5-1.797-5-4.006 0-.553.447-1 1-1s1 .447 1 1c0 1.087 1.374 2.006 3 2.006s3-.919 3-2.006c0-.553.447-1 1-1s1 .447 1 1c0 2.209-2.243 4.006-5 4.006z"/></g><g><path d="m10 51.998c-.553 0-1-.447-1-1v-2c0-.553.447-1 1-1s1 .447 1 1v2c0 .553-.447 1-1 1z"/></g><g><path d="m52.5 51.998c-.553 0-1-.447-1-1v-2c0-.553.447-1 1-1s1 .447 1 1v2c0 .553-.447 1-1 1z"/></g><g><path d="m55.5 51.998c-.553 0-1-.447-1-1v-2c0-.553.447-1 1-1s1 .447 1 1v2c0 .553-.447 1-1 1z"/></g><g><path d="m32 64c-.553 0-1-.447-1-1v-3c0-.553.447-1 1-1s1 .447 1 1v3c0 .553-.447 1-1 1z"/></g><g><path d="m35 64c-.553 0-1-.447-1-1v-3c0-.553.447-1 1-1s1 .447 1 1v3c0 .553-.447 1-1 1z"/></g><g><path d="m29 64c-.553 0-1-.447-1-1v-3c0-.553.447-1 1-1s1 .447 1 1v3c0 .553-.447 1-1 1z"/></g><g><g><path d="m32 24c-6.617 0-12-5.383-12-12s5.383-12 12-12 12 5.383 12 12-5.383 12-12 12zm0-22c-5.514 0-10 4.486-10 10s4.486 10 10 10 10-4.486 10-10-4.486-10-10-10z"/></g><g><path d="m41.313 7.162c-.048 0-.097-.003-.146-.011l-4.616-.678c-.325-.048-.606-.252-.751-.547l-2.048-4.154c-.245-.496-.041-1.095.454-1.339.498-.245 1.095-.041 1.339.454l1.816 3.684 4.097.602c.546.08.924.588.844 1.135-.073.497-.5.854-.989.854z"/></g><g><path d="m40.396 20.1c-.479 0-.901-.344-.984-.831l-.803-4.684c-.056-.324.052-.656.288-.886l3.361-3.271c.396-.386 1.029-.375 1.414.02.385.396.376 1.028-.02 1.414l-2.984 2.904.714 4.165c.094.544-.272 1.062-.816 1.154-.058.01-.115.015-.17.015z"/></g><g><path d="m27.778 23.152c-.36 0-.708-.194-.887-.536-.257-.489-.067-1.093.422-1.35l4.223-2.213c.291-.152.637-.152.928 0l4.224 2.213c.489.256.679.86.422 1.35-.256.488-.861.681-1.35.422l-3.76-1.97-3.759 1.97c-.147.078-.306.114-.463.114z"/></g><g><path d="m23.604 20.1c-.056 0-.113-.005-.17-.015-.545-.093-.91-.61-.816-1.154l.715-4.165-2.987-2.904c-.396-.385-.404-1.018-.02-1.414.386-.395 1.018-.405 1.414-.02l3.364 3.271c.236.229.344.562.288.886l-.804 4.684c-.082.487-.505.831-.984.831z"/></g><g><path d="m22.688 7.162c-.488 0-.915-.357-.988-.854-.08-.547.298-1.055.844-1.135l4.097-.602 1.814-3.684c.246-.494.844-.696 1.34-.455.495.244.699.844.455 1.34l-2.047 4.154c-.146.295-.427.499-.752.547l-4.616.678c-.051.008-.1.011-.147.011z"/></g><g><path d="m34.6 15.984h-5.2c-.434 0-.817-.279-.951-.69l-1.606-4.941c-.134-.412.013-.863.363-1.118l4.206-3.059c.35-.256.826-.256 1.176 0l4.206 3.059c.351.255.497.706.363 1.118l-1.606 4.941c-.134.411-.518.69-.951.69zm-4.473-2h3.746l1.157-3.56-3.03-2.203-3.03 2.204z"/></g></g></g></svg>